<svg width="40" height="49" viewBox="0 0 40 49" fill="none" xmlns="http://www.w3.org/2000/svg">
<path d="M13.7412 24.17L25.8166 36.2454" stroke="#D2D2D2" stroke-width="3" stroke-linecap="square"/>
<path d="M13.7412 24.17L25.8166 36.2454" stroke="black" stroke-width="3" stroke-linecap="square"/>
<path d="M13.7412 24.17L25.8166 36.2454" stroke="#808080" stroke-width="3" stroke-linecap="square"/>
<path d="M26.1221 24.1701L14.0467 36.2455" stroke="#D2D2D2" stroke-width="3" stroke-linecap="square"/>
<path d="M26.1221 24.1701L14.0467 36.2455" stroke="black" stroke-width="3" stroke-linecap="square"/>
<path d="M26.1221 24.1701L14.0467 36.2455" stroke="#808080" stroke-width="3" stroke-linecap="square"/>
<path d="M1.5 14.2224H38.5V42C38.5 45.0376 36.0376 47.5 33 47.5H7C3.96243 47.5 1.5 45.0376 1.5 42V14.2224Z" stroke="#D2D2D2" stroke-width="3"/>
<path d="M1.5 14.2224H38.5V42C38.5 45.0376 36.0376 47.5 33 47.5H7C3.96243 47.5 1.5 45.0376 1.5 42V14.2224Z" stroke="black" stroke-width="3"/>
<path d="M1.5 14.2224H38.5V42C38.5 45.0376 36.0376 47.5 33 47.5H7C3.96243 47.5 1.5 45.0376 1.5 42V14.2224Z" stroke="#808080" stroke-width="3"/>
<path d="M10.1683 12.9332L10.167 11.8324C10.1605 6.40401 14.5593 2 19.9877 2V2C25.4077 2 29.803 6.39094 29.8084 11.811L29.8106 14.0233" stroke="#D2D2D2" stroke-width="3"/>
<path d="M10.1683 12.9332L10.167 11.8324C10.1605 6.40401 14.5593 2 19.9877 2V2C25.4077 2 29.803 6.39094 29.8084 11.811L29.8106 14.0233" stroke="black" stroke-width="3"/>
<path d="M10.1683 12.9332L10.167 11.8324C10.1605 6.40401 14.5593 2 19.9877 2V2C25.4077 2 29.803 6.39094 29.8084 11.811L29.8106 14.0233" stroke="#808080" stroke-width="3"/>
</svg>
