<svg xmlns="http://www.w3.org/2000/svg" viewBox="0 0 20.41 54.11">
    <defs>
        <style>.cls-1{fill:#919cb6;}</style>
    </defs>
    <title>Asset 4</title>
    <g id="Layer_2" data-name="Layer 2">
        <g id="Layer_1-2" data-name="Layer 1">
            <path class="cls-1"
                  d="M2.39,13.6s5-6,8.1-6.32c.52-.12,1.2-.69.93-1.13s-2.95-3.83,1.46-6A1.43,1.43,0,0,1,13.29,0c1.29-.18,5.46.6,2.59,6.22-.62.71,0,3.18,2,3.78,1.21.68,1.32-.25,1.11,5.61a4.9,4.9,0,0,0,.43,2.51c.45.6,2,2.49.06,2.31-.94-.09-2.74-2.84-2.51,2,0,1.76-.1,7-.16,9.14A8.13,8.13,0,0,1,16.45,33a34.33,34.33,0,0,0-.19,5c0,3.44-5.26,13-2.52,14.49.14.14.29.27.42.41.52.58,1,1-.11,1.14a18.37,18.37,0,0,1-2.89-.15.37.37,0,0,1-.37-.38,14,14,0,0,0,.57-3.87,5.35,5.35,0,0,1,.13-1.28c.24-1.56.28-4.51.34-6.07A3.64,3.64,0,0,1,12.14,41c.25-.59.58-2.35.44-7.5C12.36,32.26,10,28.85,9.78,38c.05,1.51-2,3.21-3.47.14a3.12,3.12,0,0,1-.72-2.51c0-.5.1-.93.14-1.43.14-1.51-.4-3.23-.11-4.8.71-3.77,1-10.14-1.5-10.6a18.74,18.74,0,0,1-3.3-.92c-1.14-.5-1-1.27-.19-2.29A19.32,19.32,0,0,1,2.39,13.6Z"/>
        </g>
    </g>
</svg>