<svg width="44" height="50" viewBox="0 0 44 50" fill="none" xmlns="http://www.w3.org/2000/svg">
<path d="M34.2486 34.1946L41.2982 41.1142L34.3074 48.2654" stroke="#D2D2D2" stroke-width="3"/>
<path d="M34.2486 34.1946L41.2982 41.1142L34.3074 48.2654" stroke="black" stroke-width="3"/>
<path d="M34.2486 34.1946L41.2982 41.1142L34.3074 48.2654" stroke="#808080" stroke-width="3"/>
<path d="M41.3848 41.2712H24.3848" stroke="#D2D2D2" stroke-width="3"/>
<path d="M41.3848 41.2712H24.3848" stroke="black" stroke-width="3"/>
<path d="M41.3848 41.2712H24.3848" stroke="#808080" stroke-width="3"/>
<path d="M41 19L22.2406 35.8046L3 19" stroke="#D2D2D2" stroke-width="3"/>
<path d="M41 19L22.2406 35.8046L3 19" stroke="black" stroke-width="3"/>
<path d="M41 19L22.2406 35.8046L3 19" stroke="#808080" stroke-width="3"/>
<path d="M22.7692 47.7308H2V18.5H42V33.8846" stroke="#D2D2D2" stroke-width="3"/>
<path d="M22.7692 47.7308H2V18.5H42V33.8846" stroke="black" stroke-width="3"/>
<path d="M22.7692 47.7308H2V18.5H42V33.8846" stroke="#808080" stroke-width="3"/>
</svg>
