<svg xmlns:mydata="http://www.w3.org/2000/svg" mydata:contrastcolor="ffffff" mydata:template="Default"
     mydata:presentation="2.5" mydata:layouttype="undefined" mydata:specialfontid="undefined" mydata:id1="816"
     mydata:id2="232" mydata:companyname="beauty room" mydata:companytagline="" version="1.1"
     xmlns="http://www.w3.org/2000/svg" viewBox="0 0 550 470" class="main"
     style="transform: rotate3d(0, 0, 0, 0deg) rotateY(0deg) rotateX(0deg) rotate(0deg) skew(0deg, 0deg) translate(0px, 0px) translateZ(100px); width: 75%; height: auto; top: 18.6417%; left: 12.5%; opacity: 1; filter: drop-shadow(rgba(0, 0, 0, 0.6) 3px 2px 4px);">
    <g fill="#e59bdc" fill-rule="nonzero" stroke="none" stroke-width="1" stroke-linecap="butt" stroke-linejoin="miter"
       stroke-miterlimit="10" stroke-dasharray="" stroke-dashoffset="0" font-family="none" font-weight="none"
       font-size="none" text-anchor="none" style="mix-blend-mode: normal; fill: rgb(255, 255, 255); opacity: 1;">
        <g data-paper-data="{&quot;isGlobalGroup&quot;:true}" style="fill: rgb(255, 255, 255); opacity: 1;">
            <g data-paper-data="{&quot;isSecondaryText&quot;:true}" style="fill: rgb(255, 255, 255); opacity: 1;">
                <path d="M165.44549,274.80044v-5.84264h3.33263c0.87183,0 1.56788,0.27069 2.08817,0.81206c0.52028,0.54138 0.78043,1.22981 0.78043,2.06531c0,0.8355 -0.2742,1.54269 -0.82261,2.12156c-0.53286,0.56247 -1.21486,0.8437 -2.04598,0.8437zM173.12319,271.86857c0,-1.24172 -0.44646,-2.27877 -1.33938,-3.11116c-0.86735,-0.80855 -1.93956,-1.21282 -3.21662,-1.21282h-4.59818v14.34295h1.47648v-5.6739h1.72189l4.20513,5.6739h1.9827l-4.41552,-5.68574c1.11442,-0.07199 2.06246,-0.47232 2.84412,-1.20099c0.89292,-0.83238 1.33938,-1.87646 1.33938,-3.13225z"
                      data-paper-data="{&quot;glyphName&quot;:&quot;R&quot;,&quot;glyphIndex&quot;:0,&quot;firstGlyphOfWord&quot;:true,&quot;word&quot;:1}"
                      style="fill: rgb(255, 255, 255);"></path>
                <path d="M214.27548,274.67388c0,1.63116 -0.57653,3.02327 -1.72959,4.17633c-1.15306,1.15306 -2.54517,1.72959 -4.17633,1.72959c-1.6171,0 -3.00218,-0.57653 -4.15524,-1.72959c-1.15306,-1.15306 -1.72959,-2.54517 -1.72959,-4.17633c0,-1.6171 0.57653,-3.00218 1.72959,-4.15524c1.15306,-1.15306 2.53814,-1.72959 4.15524,-1.72959c1.63116,0 3.02327,0.57653 4.17633,1.72959c1.15306,1.15306 1.72959,2.53814 1.72959,4.15524zM215.75196,274.67388c0,-1.01244 -0.19335,-1.96864 -0.58005,-2.86859c-0.3867,-0.89995 -0.91401,-1.68038 -1.58194,-2.34128c-0.66793,-0.6609 -1.45187,-1.1847 -2.35182,-1.5714c-0.89995,-0.3867 -1.85615,-0.58005 -2.86859,-0.58005c-1.01244,0 -1.96513,0.19335 -2.85804,0.58005c-0.89292,0.3867 -1.67334,0.9105 -2.34128,1.5714c-0.66793,0.6609 -1.19525,1.44133 -1.58194,2.34128c-0.3867,0.89995 -0.58005,1.85615 -0.58005,2.86859c0,1.01244 0.19335,1.96864 0.58005,2.86859c0.3867,0.89995 0.91401,1.68389 1.58194,2.35182c0.66793,0.66793 1.44836,1.19525 2.34128,1.58194c0.89292,0.3867 1.8456,0.58005 2.85804,0.58005c1.01244,0 1.96864,-0.19335 2.86859,-0.58005c0.89995,-0.3867 1.68389,-0.91401 2.35182,-1.58194c0.66793,-0.66793 1.19525,-1.45187 1.58194,-2.35182c0.3867,-0.89995 0.58005,-1.85615 0.58005,-2.86859z"
                      data-paper-data="{&quot;glyphName&quot;:&quot;O&quot;,&quot;glyphIndex&quot;:1,&quot;word&quot;:1}"
                      style="fill: rgb(255, 255, 255);"></path>
                <path d="M260.91452,274.67388c0,1.63116 -0.57653,3.02327 -1.72959,4.17633c-1.15306,1.15306 -2.54517,1.72959 -4.17633,1.72959c-1.6171,0 -3.00218,-0.57653 -4.15524,-1.72959c-1.15306,-1.15306 -1.72959,-2.54517 -1.72959,-4.17633c0,-1.6171 0.57653,-3.00218 1.72959,-4.15524c1.15306,-1.15306 2.53814,-1.72959 4.15524,-1.72959c1.63116,0 3.02327,0.57653 4.17633,1.72959c1.15306,1.15306 1.72959,2.53814 1.72959,4.15524zM262.391,274.67388c0,-1.01244 -0.19335,-1.96864 -0.58005,-2.86859c-0.3867,-0.89995 -0.91401,-1.68038 -1.58194,-2.34128c-0.66793,-0.6609 -1.45187,-1.1847 -2.35182,-1.5714c-0.89995,-0.3867 -1.85615,-0.58005 -2.86859,-0.58005c-1.01244,0 -1.96513,0.19335 -2.85804,0.58005c-0.89292,0.3867 -1.67334,0.9105 -2.34128,1.5714c-0.66793,0.6609 -1.19525,1.44133 -1.58194,2.34128c-0.3867,0.89995 -0.58005,1.85615 -0.58005,2.86859c0,1.01244 0.19335,1.96864 0.58005,2.86859c0.3867,0.89995 0.91401,1.68389 1.58194,2.35182c0.66793,0.66793 1.44836,1.19525 2.34128,1.58194c0.89292,0.3867 1.8456,0.58005 2.85804,0.58005c1.01244,0 1.96864,-0.19335 2.86859,-0.58005c0.89995,-0.3867 1.68389,-0.91401 2.35182,-1.58194c0.66793,-0.66793 1.19525,-1.45187 1.58194,-2.35182c0.3867,-0.89995 0.58005,-1.85615 0.58005,-2.86859z"
                      data-paper-data="{&quot;glyphName&quot;:&quot;O&quot;,&quot;glyphIndex&quot;:2,&quot;word&quot;:1}"
                      style="fill: rgb(255, 255, 255);"></path>
                <path d="M308.06713,281.88754h1.49757l-3.33263,-15.29212l-4.70364,12.27588l-4.70364,-12.27588l-3.35372,15.29212h1.51867l2.21472,-10.20881l4.32398,11.05251l4.30289,-11.05251z"
                      data-paper-data="{&quot;glyphName&quot;:&quot;M&quot;,&quot;glyphIndex&quot;:3,&quot;lastGlyphOfWord&quot;:true,&quot;word&quot;:1}"
                      style="fill: rgb(255, 255, 255);"></path>
            </g>
            <g data-paper-data="{&quot;isPrimaryText&quot;:true}" style="fill: rgb(255, 255, 255); opacity: 1;">
                <path d="M212.75369,206.21913c-0.10792,-6.15159 -4.64068,-11.11604 -10.4685,-14.35372c-7.66251,-4.42483 -17.15971,-4.96444 -25.6856,-4.42483c-3.3456,0.21585 -12.8428,2.48222 -12.62696,8.0942c0.53961,16.40425 0.21585,32.37681 0.21585,49.42859c0,6.36744 4.31691,8.41797 9.82097,8.84966c2.80599,0.21585 18.02309,0.53961 22.87961,0.10792c12.30319,-0.9713 22.66377,-9.60512 22.44792,-21.80038c-0.10792,-7.23082 -5.93575,-12.30319 -11.65565,-14.89333c2.91391,-2.48222 5.18029,-6.25952 5.07237,-11.00811zM190.30577,214.31333c-2.48222,1.51092 -3.56145,3.77729 -3.02184,6.69121c0.43169,2.48222 2.59014,4.42483 5.50406,4.7486c5.82783,0.75546 14.89333,3.02184 14.2458,9.17343c-0.75546,7.33874 -13.05865,8.52589 -19.74985,8.41797c-3.66937,0 -7.23082,-0.32377 -11.11604,-0.64754c0.21585,-14.89333 0.43169,-28.38367 0.64754,-43.92454c5.39613,-0.32377 22.77169,-0.64754 22.77169,7.66251c0,3.56145 -5.82783,5.82783 -9.28135,7.87836z"
                      data-paper-data="{&quot;glyphName&quot;:&quot;B&quot;,&quot;glyphIndex&quot;:0,&quot;firstGlyphOfWord&quot;:true,&quot;word&quot;:1}"
                      style="fill: rgb(255, 255, 255);"></path>
                <path d="M270.70817,235.78994c-2.3743,0 -4.85652,1.18715 -6.58328,2.15845c-4.31691,2.26638 -8.41797,4.42483 -14.02995,4.31691c-5.61198,-0.10792 -10.57642,-3.02184 -11.54773,-8.31005c4.53275,0 9.28135,0.21585 13.8141,-0.10792c3.45353,-0.21585 8.0942,-2.26638 7.98628,-6.25952c-0.10792,-3.3456 -3.56145,-5.61198 -6.79913,-5.61198c-5.07237,0 -9.82097,0.21585 -15.00125,0c2.48222,-4.85652 6.25952,-8.52589 13.05865,-8.41797c3.77729,0.10792 6.58328,2.15845 9.38927,5.28821c1.83469,2.26638 4.7486,4.53275 8.0942,2.48222c2.59014,-1.51092 4.64068,-4.7486 3.12976,-7.87836c-3.45353,-7.23082 -11.00811,-11.8715 -20.72116,-11.76357c-15.2171,0.32377 -27.0886,11.22396 -27.0886,26.98067c-0.10792,14.35372 9.71304,25.57768 25.36183,25.57768c8.31005,0 16.51217,-3.02184 22.44792,-7.77043c1.61884,-1.29507 3.77729,-3.3456 3.66937,-6.15159c0,-2.26638 -2.26638,-4.64068 -5.18029,-4.53275z"
                      data-paper-data="{&quot;glyphName&quot;:&quot;e&quot;,&quot;glyphIndex&quot;:1,&quot;word&quot;:1}"
                      style="fill: rgb(255, 255, 255);"></path>
                <path d="M324.77744,229.4225c-0.21585,-3.56145 -3.45353,-6.47536 -7.01498,-6.15159c-3.99314,0.32377 -7.1229,5.39613 -8.95758,7.87836c-2.80599,3.66937 -8.95758,10.4685 -14.2458,10.4685c-1.61884,0 -2.48222,-2.69807 -2.48222,-5.28821c0,-7.55459 3.23768,-13.59826 8.63382,-18.77855c1.94261,-1.94261 5.07237,-3.99314 7.23082,-3.99314c1.07923,0.10792 2.15845,0.53961 2.91391,2.15845c1.18715,2.3743 3.66937,3.66937 6.04367,3.66937c3.56145,0 5.82783,-3.23768 5.82783,-6.69121c0,-7.44667 -8.63382,-10.90019 -13.8141,-10.90019c-16.29633,-0.10792 -29.0312,17.91517 -29.0312,34.21149c0,8.84966 4.7486,17.91517 12.8428,17.91517c9.06551,0 16.08048,-5.07237 21.26077,-9.82097c0.64754,1.72676 1.51092,3.77729 2.26638,5.82783c0.9713,2.48222 3.3456,3.88522 5.82783,3.88522c3.56145,0 5.61198,-3.02184 5.61198,-6.15159c0,-1.51092 -0.32377,-3.23768 -0.75546,-4.64068c-1.61884,-4.64068 -1.83469,-8.63382 -2.15845,-13.59826z"
                      data-paper-data="{&quot;glyphName&quot;:&quot;a&quot;,&quot;glyphIndex&quot;:2,&quot;word&quot;:1}"
                      style="fill: rgb(255, 255, 255);"></path>
                <path d="M401.98057,232.41545c-1.5121,-2.26814 -5.40034,-2.16014 -7.02045,-0.32402c-3.02419,3.56423 -5.83237,8.85657 -10.04464,11.44873c-2.37615,1.40409 -4.21227,-0.64804 -5.18433,-2.91619c-1.08007,-2.05213 -1.72811,-4.7523 -1.83612,-6.2644c-0.54003,-3.67223 -0.86406,-7.34447 -0.86406,-11.0167c0,-6.15639 0,-10.04464 0.43203,-16.20103c0.21601,-2.91619 -1.72811,-5.83237 -4.6443,-5.94038c-2.16014,0 -4.42828,2.05213 -4.53629,4.6443c-0.21601,7.02045 -0.43203,11.77275 -0.43203,18.7932c0,6.58842 -6.15639,15.55299 -11.44873,18.68519c-3.1322,2.05213 -5.50835,0.54003 -6.80443,-2.26814c-1.6201,-3.02419 -2.05213,-7.66849 -2.05213,-10.26066c0,-6.69643 0,-17.06509 0,-23.65351c0,-3.56423 -1.72811,-5.72437 -4.86031,-5.61636c-2.37615,0.10801 -4.6443,1.72811 -4.53629,4.53629c0,7.99251 -0.21601,15.44499 -0.21601,23.4375c0,10.47667 2.70017,23.32949 13.50086,24.40956c7.56048,0.86406 14.1489,-4.21227 18.7932,-12.5288c1.6201,7.66849 7.02045,13.82488 14.36492,12.20478c6.37241,-1.40409 11.77275,-7.02045 15.33698,-12.63681c1.5121,-2.48416 3.56423,-6.2644 2.05213,-8.53254z"
                      data-paper-data="{&quot;glyphName&quot;:&quot;u&quot;,&quot;glyphIndex&quot;:3,&quot;fontStyleEffect&quot;:true,&quot;word&quot;:1}"
                      style="fill: rgb(255, 255, 255);"></path>
                <path d="M442.91434,224.26264c-2.3157,-3.30814 -6.28547,-1.87461 -7.82927,0.44109c-5.18276,7.719 -10.58606,19.07696 -18.96669,19.07696c-6.83683,0 -7.82927,-7.27791 -8.04981,-12.01959c-0.33081,-5.73411 -0.11027,-11.46823 0,-17.09207c0.11027,-2.3157 -0.33081,-3.52869 0.66163,-4.41086c0.7719,-0.66163 1.98489,-0.33081 4.08004,-0.33081c3.41841,-0.11027 7.82927,-0.66163 8.38063,-4.52113c0.33081,-2.75679 -1.87461,-4.96221 -4.41086,-4.96221c-2.42597,0.11027 -5.29303,0 -8.27036,0c0,-1.32326 0,-6.72656 0,-8.38063c0,-2.53624 -3.0876,-4.74167 -5.73411,-4.6314c-1.98489,0.22054 -4.19031,2.09516 -4.19031,4.96221c0,14.33529 -0.11027,26.79596 -0.11027,41.02097c-0.11027,9.37307 5.18276,20.28994 16.09963,20.28994c13.45311,0 20.51049,-12.68121 26.90623,-21.94401c1.76434,-2.53624 3.0876,-5.07249 1.43353,-7.49846z"
                      data-paper-data="{&quot;glyphName&quot;:&quot;t&quot;,&quot;glyphIndex&quot;:4,&quot;fontStyleEffect&quot;:true,&quot;word&quot;:1}"
                      style="fill: rgb(255, 255, 255);"></path>
                <path d="M475.30868,205.85424c0,3.52411 -0.99116,10.90273 -1.65193,16.9598c-0.88103,8.14952 -5.06592,21.14469 -15.08762,21.14469c-8.59003,0 -8.92042,-12.55466 -8.92042,-28.52331c0,-2.53296 0,-5.17604 0,-7.92926c0,-2.53296 -0.88103,-5.06592 -3.0836,-5.94694c-2.75321,-1.10129 -6.71784,1.10129 -6.71784,4.6254c0,17.7307 -3.63424,47.24517 19.16237,47.24517c5.3963,0 10.7926,-3.41399 14.31672,-7.04823c-0.55064,12.66479 -5.94694,15.74839 -13.43569,19.49276c-2.3127,1.21141 -3.96463,2.53296 -3.19373,5.3963c0.44051,2.20257 2.53296,3.74437 4.73553,3.30386c13.54582,-2.75321 20.8143,-13.21543 21.5852,-26.87138c0.7709,-14.31672 1.32154,-27.09163 1.98231,-41.40835c0,-2.53296 -2.53296,-4.84566 -4.95579,-4.95579c-2.86334,-0.11013 -4.73553,1.87219 -4.73553,4.51527z"
                      data-paper-data="{&quot;glyphName&quot;:&quot;y&quot;,&quot;glyphIndex&quot;:5,&quot;lastGlyphOfWord&quot;:true,&quot;fontStyleEffect&quot;:true,&quot;word&quot;:1}"
                      style="fill: rgb(255, 255, 255);"></path>
            </g>
            <g data-paper-data="{&quot;initialText&quot;:&quot;B&quot;,&quot;fillRule&quot;:&quot;nonzero&quot;,&quot;selectedEffects&quot;:{&quot;container&quot;:&quot;&quot;,&quot;transformation&quot;:&quot;&quot;,&quot;pattern&quot;:&quot;&quot;},&quot;bounds&quot;:{&quot;x&quot;:64.99999999999999,&quot;y&quot;:187.26875505628502,&quot;width&quot;:60.78719010598037,&quot;height&quot;:95.46248988743},&quot;isIcon&quot;:&quot;true&quot;,&quot;iconType&quot;:&quot;initial&quot;,&quot;iconStyle&quot;:&quot;standalone&quot;,&quot;rawInitialId&quot;:982}"
               style="fill: rgb(255, 255, 255); opacity: 1;">
                <path d="M124.20155,202.81806c3.09357,-7.48178 1.67446,-11.06744 -4.38005,-11.06744c-5.92631,0 -15.15902,7.61962 -22.35067,18.44574c-4.26651,6.4228 -8.60718,16.37701 -10.92981,25.06547c-0.56228,2.1033 -1.29571,4.12217 -1.62817,4.48228c-0.44601,0.48267 -0.5187,0.79565 -0.27674,1.18949c0.22143,0.36011 0.08045,2.06873 -0.43218,5.24064c-0.41794,2.58596 -0.8585,5.45181 -0.97791,6.36121c-0.44307,3.37805 -0.85493,1.5515 -0.85493,-3.79264c0,-10.89503 1.10465,-22.47719 3.11096,-32.61617c1.45324,-7.34394 3.60515,-15.36642 4.25457,-15.86082c1.00284,-0.7638 4.56168,-10.77164 4.18061,-11.75604c-0.22814,-0.58951 -1.93277,-1.24103 -3.24691,-1.24103c-0.5187,0 -1.3487,0.32429 -1.86741,0.73008c-1.26323,0.98775 -4.39702,7.51027 -6.10961,12.71635c-5.04917,15.3482 -7.20986,33.27125 -6.0895,50.51032l0.26898,4.13746l-2.38611,1.11031c-5.95689,2.77157 -9.52245,8.19887 -9.48641,14.43943c0.02954,5.09861 3.01982,9.01275 8.31074,10.87785c2.60084,0.91674 7.84965,1.22049 11.34229,0.65592c11.79187,-1.90575 26.38316,-11.58028 31.82157,-22.29095c4.04948,-7.97534 3.00997,-15.26188 1.97383,-17.44584c-2.79106,-5.88316 -7.75664,-8.55061 -15.91759,-8.55061h-3.90744l3.49264,-3.15977c9.40618,-8.50976 19.02834,-20.78764 22.08523,-28.18123zM83.58154,280.10078c-0.40117,0.23002 -2.14393,0.40369 -4.14961,0.41374c-3.11221,0.0155 -3.65521,-0.07919 -5.42919,-0.9469c-3.67846,-1.79911 -5.26704,-4.82816 -5.06384,-9.65505c0.0972,-2.31007 0.31863,-3.24985 1.21065,-5.13715c1.17315,-2.48248 3.52868,-5.05272 5.61689,-6.1291c1.55317,-0.80068 1.43795,-1.07678 2.58805,6.19802c1.01373,6.41296 2.65782,13.50886 3.315,14.30828c0.2294,0.27926 0.92658,0.5252 1.51442,0.53441c1.00284,0.01592 1.03446,0.0486 0.39762,0.41374zM108.23723,237.35505c0,0 4.71461,1.47943 6.51478,5.14156c1.29131,2.62723 1.24815,8.11968 0.06201,11.42127c-4.87256,13.5627 -14.49577,19.80073 -26.28764,24.6557c-1.4524,0.59789 -2.78833,1.09627 -2.93938,1.09627c-0.32031,0 0.03059,-18.58359 0.40809,-21.61765c0.13721,-1.10339 0.4194,-2.1079 0.62932,-2.24114c0.21138,-0.13408 1.3487,-0.14937 2.55894,-0.03456c1.86741,0.17724 2.1785,0.12318 2.1785,-0.37939c0,-0.68461 -1.00284,-1.12811 -3.18134,-1.40695c-1.93654,-0.24804 -1.93654,-0.24804 -1.13083,-5.35062c1.10507,-6.99911 0.96094,-6.65848 3.51673,-8.30131c5.49873,-3.53391 13.54719,-4.89268 17.67083,-2.98316zM89.70392,236.39977c-0.1678,-0.77428 3.12331,-10.27452 5.02863,-14.51526c3.54711,-7.89554 8.16683,-14.72348 13.73972,-20.3077c4.0258,-4.03397 6.6765,-5.99858 9.86244,-7.31042c2.31697,-0.95382 2.64714,-0.96848 3.09566,-0.13679c0.85933,1.59318 -0.06515,5.75787 -2.22689,10.03318c-1.38705,2.74309 -5.49748,8.68846 -8.81939,12.757c-5.8842,7.20588 -20.38081,20.86139 -20.68018,19.48z"
                      data-paper-data="{&quot;isPathIcon&quot;:true}" style="fill: rgb(255, 255, 255);"></path>
            </g>
            <path d="M141.05992,282.73124v-95.46249h3.05744v95.46249z"
                  data-paper-data="{&quot;isShapeTextSeparator&quot;:true}" style="fill: rgb(255, 255, 255);"></path>
        </g>
    </g>
</svg>